<?xml version="1.0" encoding="UTF-8"?>
<svg version="1.1" xmlns="http://www.w3.org/2000/svg" width="192" height="192">
<path d="M0 0 C3.81234828 0.02278944 7.62358005 0.00924587 11.4358902 -0.01375198 C49.76360362 -0.21050378 49.76360362 -0.21050378 65.078125 8.27148438 C65.72845703 8.61655029 66.37878906 8.96161621 67.04882812 9.31713867 C82.87692503 17.97190119 92.09882034 30.91749036 97.70410156 47.94116211 C101.67515976 62.31535397 101.18888576 77.16073949 101.09960938 91.94335938 C101.07681993 95.75570766 101.09036351 99.56693943 101.11336136 103.37924957 C101.31011315 141.70696299 101.31011315 141.70696299 92.828125 157.02148438 C92.31052612 157.99698242 92.31052612 157.99698242 91.7824707 158.9921875 C83.12770818 174.82028441 70.18211902 184.04217971 53.15844727 189.64746094 C38.78425541 193.61851913 23.93886989 193.13224514 9.15625 193.04296875 C5.34390172 193.02017931 1.53266995 193.03372288 -2.2796402 193.05672073 C-40.60735362 193.25347253 -40.60735362 193.25347253 -55.921875 184.77148438 C-56.89737305 184.2538855 -56.89737305 184.2538855 -57.89257812 183.72583008 C-73.72067503 175.07106756 -82.94257034 162.12547839 -88.54785156 145.10180664 C-92.51890976 130.72761478 -92.03263576 115.88222926 -91.94335938 101.09960938 C-91.92056993 97.28726109 -91.93411351 93.47602932 -91.95711136 89.66371918 C-92.15386315 51.33600576 -92.15386315 51.33600576 -83.671875 36.02148438 C-83.32680908 35.37115234 -82.98174316 34.72082031 -82.6262207 34.05078125 C-73.97145818 18.22268434 -61.02586902 9.00078904 -44.00219727 3.39550781 C-29.62800541 -0.57555038 -14.78261989 -0.08927639 0 0 Z " fill="#FEFEFE" transform="translate(91.421875,-0.521484375)"/>
<path d="M0 0 C7.6415625 -0.0928125 7.6415625 -0.0928125 15.4375 -0.1875 C17.02618896 -0.21481201 18.61487793 -0.24212402 20.25170898 -0.27026367 C37.05595829 -0.36886896 37.05595829 -0.36886896 44 5.5625 C46.96706717 10.6621467 47.9178387 15.49661567 46.40234375 21.28125 C44.11496 26.58877247 41.20756842 28.67519267 36 31 C33.5625 31.75 33.5625 31.75 32 32 C33.28970703 32.95519531 33.28970703 32.95519531 34.60546875 33.9296875 C38.73444559 37.37313042 41.42179839 41.63955267 44.3125 46.125 C45.1178418 47.34123047 45.1178418 47.34123047 45.93945312 48.58203125 C49.84928358 54.54785073 49.84928358 54.54785073 51 58 C47.78165865 58.73753656 45.20087528 58.88608989 42 58 C38.69253377 54.74616835 36.40218266 50.94935116 34 47 C32.94568885 45.34890896 31.88397124 43.70250701 30.8125 42.0625 C30.38582031 41.37285156 29.95914063 40.68320313 29.51953125 39.97265625 C26.49530388 36.04660273 24.19831732 34.19371762 19.23046875 33.390625 C17.88376956 33.32151687 16.53566229 33.2788629 15.1875 33.25 C12.815625 33.1675 10.44375 33.085 8 33 C8 41.25 8 49.5 8 58 C5.36 58 2.72 58 0 58 C0 38.86 0 19.72 0 0 Z " fill="#242D84" transform="translate(75,67)"/>
<path d="M0 0 C20 0 20 0 27 3 C32.12171187 8.12171187 33.28866547 13.7336442 33.3125 20.8125 C33.18607217 28.30334895 32.3946441 34.03820335 27.625 39.9375 C18.93722698 46.76360737 12.30594613 44 0 44 C0 29.48 0 14.96 0 0 Z " fill="#F9F9FB" transform="translate(24,74)"/>
<path d="M0 0 C33.76 0 33.76 0 41.3125 7.125 C47.55575314 15.33339967 49.15052701 23.84483809 48 34 C46.4398712 41.79187924 44.28535409 48.80911055 38 54 C26.84729137 60.97044289 12.31150348 58 0 58 C0 38.86 0 19.72 0 0 Z M7 7 C7 21.52 7 36.04 7 51 C25.50928802 52.49071198 25.50928802 52.49071198 35 47 C40.71018438 38.94717588 40.60801921 30.5845937 40 21 C38.88259748 15.83531275 36.02638936 12.35532447 32 9 C24.80260516 5.76203108 24.80260516 5.76203108 7 7 Z " fill="#1F2880" transform="translate(17,67)"/>
<path d="M0 0 C15.18 0 30.36 0 46 0 C46 2.31 46 4.62 46 7 C39.73 7 33.46 7 27 7 C27 23.83 27 40.66 27 58 C24.36 58 21.72 58 19 58 C19 41.17 19 24.34 19 7 C12.73 7 6.46 7 0 7 C0 4.69 0 2.38 0 0 Z " fill="#242D83" transform="translate(128,67)"/>
<path d="M0 0 C4.06321081 -0.10795246 8.12355279 -0.1873055 12.1875 -0.25 C13.33798828 -0.28351563 14.48847656 -0.31703125 15.67382812 -0.3515625 C16.78564453 -0.36445312 17.89746094 -0.37734375 19.04296875 -0.390625 C20.06414795 -0.41157227 21.08532715 -0.43251953 22.13745117 -0.45410156 C25.74876717 0.11878098 27.38934073 1.49614175 30 4 C31.45147903 6.90295805 31.37239025 8.77261779 31 12 C28.94696376 15.43229611 26.87134276 17.70955241 23 19 C21.22686149 19.08209792 19.45079225 19.10746294 17.67578125 19.09765625 C16.64775391 19.09443359 15.61972656 19.09121094 14.56054688 19.08789062 C13.48869141 19.07951172 12.41683594 19.07113281 11.3125 19.0625 C10.22904297 19.05798828 9.14558594 19.05347656 8.02929688 19.04882812 C5.35284106 19.03703757 2.67641361 19.01910208 0 19 C0 12.73 0 6.46 0 0 Z " fill="#FCFCFD" transform="translate(83,74)"/>
</svg>
